G04 #@! TF.GenerationSoftware,KiCad,Pcbnew,9.0.4*
G04 #@! TF.CreationDate,2025-10-13T09:43:54+02:00*
G04 #@! TF.ProjectId,p1,70312e6b-6963-4616-945f-706362585858,rev?*
G04 #@! TF.SameCoordinates,Original*
G04 #@! TF.FileFunction,Copper,L1,Top*
G04 #@! TF.FilePolarity,Positive*
%FSLAX46Y46*%
G04 Gerber Fmt 4.6, Leading zero omitted, Abs format (unit mm)*
G04 Created by KiCad (PCBNEW 9.0.4) date 2025-10-13 09:43:54*
%MOMM*%
%LPD*%
G01*
G04 APERTURE LIST*
G04 Aperture macros list*
%AMRoundRect*
0 Rectangle with rounded corners*
0 $1 Rounding radius*
0 $2 $3 $4 $5 $6 $7 $8 $9 X,Y pos of 4 corners*
0 Add a 4 corners polygon primitive as box body*
4,1,4,$2,$3,$4,$5,$6,$7,$8,$9,$2,$3,0*
0 Add four circle primitives for the rounded corners*
1,1,$1+$1,$2,$3*
1,1,$1+$1,$4,$5*
1,1,$1+$1,$6,$7*
1,1,$1+$1,$8,$9*
0 Add four rect primitives between the rounded corners*
20,1,$1+$1,$2,$3,$4,$5,0*
20,1,$1+$1,$4,$5,$6,$7,0*
20,1,$1+$1,$6,$7,$8,$9,0*
20,1,$1+$1,$8,$9,$2,$3,0*%
G04 Aperture macros list end*
G04 #@! TA.AperFunction,ComponentPad*
%ADD10R,1.700000X1.700000*%
G04 #@! TD*
G04 #@! TA.AperFunction,ComponentPad*
%ADD11C,1.700000*%
G04 #@! TD*
G04 #@! TA.AperFunction,ComponentPad*
%ADD12R,1.500000X1.050000*%
G04 #@! TD*
G04 #@! TA.AperFunction,ComponentPad*
%ADD13O,1.500000X1.050000*%
G04 #@! TD*
G04 #@! TA.AperFunction,ComponentPad*
%ADD14R,1.800000X1.800000*%
G04 #@! TD*
G04 #@! TA.AperFunction,ComponentPad*
%ADD15C,1.800000*%
G04 #@! TD*
G04 #@! TA.AperFunction,ComponentPad*
%ADD16RoundRect,0.249999X-0.850001X-0.850001X0.850001X-0.850001X0.850001X0.850001X-0.850001X0.850001X0*%
G04 #@! TD*
G04 #@! TA.AperFunction,ComponentPad*
%ADD17C,2.200000*%
G04 #@! TD*
G04 #@! TA.AperFunction,ComponentPad*
%ADD18RoundRect,0.190500X-0.762000X-0.444500X0.762000X-0.444500X0.762000X0.444500X-0.762000X0.444500X0*%
G04 #@! TD*
G04 #@! TA.AperFunction,ComponentPad*
%ADD19O,1.905000X1.270000*%
G04 #@! TD*
G04 #@! TA.AperFunction,ComponentPad*
%ADD20C,1.600000*%
G04 #@! TD*
G04 #@! TA.AperFunction,ComponentPad*
%ADD21C,2.600000*%
G04 #@! TD*
G04 #@! TA.AperFunction,ComponentPad*
%ADD22RoundRect,0.250000X1.050000X-1.050000X1.050000X1.050000X-1.050000X1.050000X-1.050000X-1.050000X0*%
G04 #@! TD*
G04 #@! TA.AperFunction,ComponentPad*
%ADD23RoundRect,0.250000X0.550000X0.550000X-0.550000X0.550000X-0.550000X-0.550000X0.550000X-0.550000X0*%
G04 #@! TD*
G04 #@! TA.AperFunction,ComponentPad*
%ADD24R,1.050000X1.500000*%
G04 #@! TD*
G04 #@! TA.AperFunction,ComponentPad*
%ADD25O,1.050000X1.500000*%
G04 #@! TD*
G04 #@! TA.AperFunction,ComponentPad*
%ADD26RoundRect,0.250000X0.550000X-0.550000X0.550000X0.550000X-0.550000X0.550000X-0.550000X-0.550000X0*%
G04 #@! TD*
G04 #@! TA.AperFunction,ComponentPad*
%ADD27R,1.070000X1.800000*%
G04 #@! TD*
G04 #@! TA.AperFunction,ComponentPad*
%ADD28O,1.070000X1.800000*%
G04 #@! TD*
G04 #@! TA.AperFunction,ComponentPad*
%ADD29C,2.340000*%
G04 #@! TD*
G04 #@! TA.AperFunction,ComponentPad*
%ADD30R,1.350000X1.350000*%
G04 #@! TD*
G04 #@! TA.AperFunction,ComponentPad*
%ADD31C,1.350000*%
G04 #@! TD*
G04 #@! TA.AperFunction,Conductor*
%ADD32C,0.250000*%
G04 #@! TD*
G04 APERTURE END LIST*
D10*
G04 #@! TO.P,J1,1,Pin_1*
G04 #@! TO.N,unconnected-(J1-Pin_1-Pad1)*
X127940000Y-97460000D03*
D11*
G04 #@! TO.P,J1,2,Pin_2*
G04 #@! TO.N,/IOREF*
X130480000Y-97460000D03*
G04 #@! TO.P,J1,3,Pin_3*
G04 #@! TO.N,/~{RESET}*
X133020000Y-97460000D03*
G04 #@! TO.P,J1,4,Pin_4*
G04 #@! TO.N,+3V3*
X135560000Y-97460000D03*
G04 #@! TO.P,J1,5,Pin_5*
G04 #@! TO.N,+5V*
X138100000Y-97460000D03*
G04 #@! TO.P,J1,6,Pin_6*
G04 #@! TO.N,GND*
X140640000Y-97460000D03*
G04 #@! TO.P,J1,7,Pin_7*
X143180000Y-97460000D03*
G04 #@! TO.P,J1,8,Pin_8*
G04 #@! TO.N,VCC*
X145720000Y-97460000D03*
G04 #@! TD*
D10*
G04 #@! TO.P,J3,1,Pin_1*
G04 #@! TO.N,/A0*
X150800000Y-97460000D03*
D11*
G04 #@! TO.P,J3,2,Pin_2*
G04 #@! TO.N,/A1*
X153340000Y-97460000D03*
G04 #@! TO.P,J3,3,Pin_3*
G04 #@! TO.N,/A2*
X155880000Y-97460000D03*
G04 #@! TO.P,J3,4,Pin_4*
G04 #@! TO.N,/A3*
X158420000Y-97460000D03*
G04 #@! TO.P,J3,5,Pin_5*
G04 #@! TO.N,/SDA{slash}A4*
X160960000Y-97460000D03*
G04 #@! TO.P,J3,6,Pin_6*
G04 #@! TO.N,/SCL{slash}A5*
X163500000Y-97460000D03*
G04 #@! TD*
D10*
G04 #@! TO.P,J2,1,Pin_1*
G04 #@! TO.N,/SCL*
X118796000Y-49200000D03*
D11*
G04 #@! TO.P,J2,2,Pin_2*
G04 #@! TO.N,/SDA*
X121336000Y-49200000D03*
G04 #@! TO.P,J2,3,Pin_3*
G04 #@! TO.N,/AREF*
X123876000Y-49200000D03*
G04 #@! TO.P,J2,4,Pin_4*
G04 #@! TO.N,GND*
X126416000Y-49200000D03*
G04 #@! TO.P,J2,5,Pin_5*
G04 #@! TO.N,/13_SCK*
X128956000Y-49200000D03*
G04 #@! TO.P,J2,6,Pin_6*
G04 #@! TO.N,/12_CIPO*
X131496000Y-49200000D03*
G04 #@! TO.P,J2,7,Pin_7*
G04 #@! TO.N,/\u002A11_COPI*
X134036000Y-49200000D03*
G04 #@! TO.P,J2,8,Pin_8*
G04 #@! TO.N,/\u002A10_CS*
X136576000Y-49200000D03*
G04 #@! TO.P,J2,9,Pin_9*
G04 #@! TO.N,/\u002A9*
X139116000Y-49200000D03*
G04 #@! TO.P,J2,10,Pin_10*
G04 #@! TO.N,/8*
X141656000Y-49200000D03*
G04 #@! TD*
D10*
G04 #@! TO.P,J4,1,Pin_1*
G04 #@! TO.N,/7*
X145720000Y-49200000D03*
D11*
G04 #@! TO.P,J4,2,Pin_2*
G04 #@! TO.N,/\u002A6*
X148260000Y-49200000D03*
G04 #@! TO.P,J4,3,Pin_3*
G04 #@! TO.N,/\u002A5*
X150800000Y-49200000D03*
G04 #@! TO.P,J4,4,Pin_4*
G04 #@! TO.N,/4*
X153340000Y-49200000D03*
G04 #@! TO.P,J4,5,Pin_5*
G04 #@! TO.N,/\u002A3*
X155880000Y-49200000D03*
G04 #@! TO.P,J4,6,Pin_6*
G04 #@! TO.N,/2*
X158420000Y-49200000D03*
G04 #@! TO.P,J4,7,Pin_7*
G04 #@! TO.N,/TX{slash}1*
X160960000Y-49200000D03*
G04 #@! TO.P,J4,8,Pin_8*
G04 #@! TO.N,/RX{slash}0*
X163500000Y-49200000D03*
G04 #@! TD*
D12*
G04 #@! TO.P,Q1,1,C*
G04 #@! TO.N,Net-(Dio1-A)*
X154100000Y-86400000D03*
D13*
G04 #@! TO.P,Q1,2,B*
G04 #@! TO.N,Net-(Q1-B)*
X154100000Y-87670000D03*
G04 #@! TO.P,Q1,3,E*
G04 #@! TO.N,GND*
X154100000Y-88940000D03*
G04 #@! TD*
D14*
G04 #@! TO.P,LED1,1,K*
G04 #@! TO.N,Net-(LED1-K)*
X118168697Y-69660000D03*
D15*
G04 #@! TO.P,LED1,2,A*
G04 #@! TO.N,Net-(LED1-A)*
X118168697Y-67120000D03*
G04 #@! TD*
D16*
G04 #@! TO.P,Dio1,1,K*
G04 #@! TO.N,+5V*
X139600000Y-93250000D03*
D17*
G04 #@! TO.P,Dio1,2,A*
G04 #@! TO.N,Net-(Dio1-A)*
X149760000Y-93250000D03*
G04 #@! TD*
D14*
G04 #@! TO.P,LED5,1,K*
G04 #@! TO.N,Net-(Dio1-A)*
X148500000Y-88775000D03*
D15*
G04 #@! TO.P,LED5,2,A*
G04 #@! TO.N,Net-(LED5-A)*
X148500000Y-86235000D03*
G04 #@! TD*
D18*
G04 #@! TO.P,K1,1*
G04 #@! TO.N,+5V*
X147100000Y-82500000D03*
D19*
G04 #@! TO.P,K1,2*
G04 #@! TO.N,Net-(J5-Pin_1)*
X152600000Y-77500000D03*
G04 #@! TO.P,K1,3*
G04 #@! TO.N,Net-(Dio1-A)*
X147100000Y-77500000D03*
G04 #@! TO.P,K1,4*
G04 #@! TO.N,Net-(J5-Pin_2)*
X152600000Y-82500000D03*
G04 #@! TD*
D10*
G04 #@! TO.P,7SEG1,1,G*
G04 #@! TO.N,Net-(7SEG1-G)*
X128780000Y-74200000D03*
D11*
G04 #@! TO.P,7SEG1,2,F*
G04 #@! TO.N,Net-(7SEG1-F)*
X128780000Y-76740000D03*
G04 #@! TO.P,7SEG1,3,CC*
G04 #@! TO.N,GND*
X128780000Y-79280000D03*
G04 #@! TO.P,7SEG1,4,E*
G04 #@! TO.N,Net-(7SEG1-E)*
X128780000Y-81820000D03*
G04 #@! TO.P,7SEG1,5,D*
G04 #@! TO.N,Net-(7SEG1-D)*
X128780000Y-84360000D03*
G04 #@! TO.P,7SEG1,6,DP*
G04 #@! TO.N,unconnected-(7SEG1-DP-Pad6)*
X136400000Y-84360000D03*
G04 #@! TO.P,7SEG1,7,C*
G04 #@! TO.N,Net-(7SEG1-C)*
X136400000Y-81820000D03*
G04 #@! TO.P,7SEG1,8,CC*
G04 #@! TO.N,GND*
X136400000Y-79280000D03*
G04 #@! TO.P,7SEG1,9,B*
G04 #@! TO.N,Net-(7SEG1-B)*
X136400000Y-76740000D03*
G04 #@! TO.P,7SEG1,10,A*
G04 #@! TO.N,Net-(7SEG1-A)*
X136400000Y-74200000D03*
G04 #@! TD*
D20*
G04 #@! TO.P,R11,1*
G04 #@! TO.N,Net-(U1-e)*
X149780000Y-54100000D03*
G04 #@! TO.P,R11,2*
G04 #@! TO.N,Net-(7SEG1-E)*
X139620000Y-54100000D03*
G04 #@! TD*
G04 #@! TO.P,R8,1*
G04 #@! TO.N,Net-(U1-b)*
X149780000Y-63400000D03*
G04 #@! TO.P,R8,2*
G04 #@! TO.N,Net-(7SEG1-B)*
X139620000Y-63400000D03*
G04 #@! TD*
D21*
G04 #@! TO.P,J5,1,Pin_1*
G04 #@! TO.N,Net-(J5-Pin_1)*
X162900000Y-81000000D03*
D22*
G04 #@! TO.P,J5,2,Pin_2*
G04 #@! TO.N,Net-(J5-Pin_2)*
X162900000Y-86080000D03*
G04 #@! TD*
D20*
G04 #@! TO.P,R15,1*
G04 #@! TO.N,+5V*
X143300000Y-79520000D03*
G04 #@! TO.P,R15,2*
G04 #@! TO.N,Net-(LED5-A)*
X143300000Y-89680000D03*
G04 #@! TD*
D23*
G04 #@! TO.P,U1,1,B*
G04 #@! TO.N,/TX{slash}1*
X160800000Y-71880000D03*
D20*
G04 #@! TO.P,U1,2,C*
G04 #@! TO.N,/2*
X160800000Y-69340000D03*
G04 #@! TO.P,U1,3,~{LT}*
G04 #@! TO.N,+5V*
X160800000Y-66800000D03*
G04 #@! TO.P,U1,4,~{BI}/~{RBO}*
X160800000Y-64260000D03*
G04 #@! TO.P,U1,5,~{RBI}*
G04 #@! TO.N,GND*
X160800000Y-61720000D03*
G04 #@! TO.P,U1,6,D*
G04 #@! TO.N,/\u002A3*
X160800000Y-59180000D03*
G04 #@! TO.P,U1,7,A*
G04 #@! TO.N,/RX{slash}0*
X160800000Y-56640000D03*
G04 #@! TO.P,U1,8,GND*
G04 #@! TO.N,GND*
X160800000Y-54100000D03*
G04 #@! TO.P,U1,9,e*
G04 #@! TO.N,Net-(U1-e)*
X153180000Y-54100000D03*
G04 #@! TO.P,U1,10,d*
G04 #@! TO.N,Net-(U1-d)*
X153180000Y-56640000D03*
G04 #@! TO.P,U1,11,c*
G04 #@! TO.N,Net-(U1-c)*
X153180000Y-59180000D03*
G04 #@! TO.P,U1,12,b*
G04 #@! TO.N,Net-(U1-b)*
X153180000Y-61720000D03*
G04 #@! TO.P,U1,13,a*
G04 #@! TO.N,Net-(U1-a)*
X153180000Y-64260000D03*
G04 #@! TO.P,U1,14,g*
G04 #@! TO.N,Net-(U1-g)*
X153180000Y-66800000D03*
G04 #@! TO.P,U1,15,f*
G04 #@! TO.N,Net-(U1-f)*
X153180000Y-69340000D03*
G04 #@! TO.P,U1,16,VCC*
G04 #@! TO.N,+5V*
X153180000Y-71880000D03*
G04 #@! TD*
D14*
G04 #@! TO.P,LED2,1,K*
G04 #@! TO.N,Net-(LED1-K)*
X124668697Y-69675000D03*
D15*
G04 #@! TO.P,LED2,2,A*
G04 #@! TO.N,Net-(LED2-A)*
X124668697Y-67135000D03*
G04 #@! TD*
D20*
G04 #@! TO.P,R10,1*
G04 #@! TO.N,Net-(U1-d)*
X149780000Y-57200000D03*
G04 #@! TO.P,R10,2*
G04 #@! TO.N,Net-(7SEG1-D)*
X139620000Y-57200000D03*
G04 #@! TD*
G04 #@! TO.P,R3,1*
G04 #@! TO.N,/4*
X101420000Y-88600000D03*
G04 #@! TO.P,R3,2*
G04 #@! TO.N,GND*
X111580000Y-88600000D03*
G04 #@! TD*
D11*
G04 #@! TO.P,SW3,1,1*
G04 #@! TO.N,+5V*
X103100000Y-91400000D03*
G04 #@! TO.P,SW3,2,2*
G04 #@! TO.N,unconnected-(SW3-Pad2)*
X109600000Y-91400000D03*
G04 #@! TO.P,SW3,3,K*
G04 #@! TO.N,unconnected-(SW3-K-Pad3)*
X103100000Y-95900000D03*
G04 #@! TO.P,SW3,4,A*
G04 #@! TO.N,/4*
X109600000Y-95900000D03*
G04 #@! TD*
D20*
G04 #@! TO.P,C1,1*
G04 #@! TO.N,+5V*
X104100000Y-59100000D03*
G04 #@! TO.P,C1,2*
G04 #@! TO.N,/8*
X109100000Y-59100000D03*
G04 #@! TD*
G04 #@! TO.P,R7,1*
G04 #@! TO.N,Net-(U1-a)*
X149780000Y-66500000D03*
G04 #@! TO.P,R7,2*
G04 #@! TO.N,Net-(7SEG1-A)*
X139620000Y-66500000D03*
G04 #@! TD*
D24*
G04 #@! TO.P,Tmp1,1,V+*
G04 #@! TO.N,+5V*
X122290000Y-96750000D03*
D25*
G04 #@! TO.P,Tmp1,2,Signal*
G04 #@! TO.N,/A2*
X121020000Y-96750000D03*
G04 #@! TO.P,Tmp1,3,GND*
G04 #@! TO.N,GND*
X119750000Y-96750000D03*
G04 #@! TD*
D26*
G04 #@! TO.P,SW4,1*
G04 #@! TO.N,Net-(LED1-K)*
X116378697Y-63131845D03*
D20*
G04 #@! TO.P,SW4,2*
G04 #@! TO.N,Net-(LED4-K)*
X118918697Y-63131845D03*
G04 #@! TO.P,SW4,3*
G04 #@! TO.N,GND*
X118918697Y-55511845D03*
G04 #@! TO.P,SW4,4*
X116378697Y-55511845D03*
G04 #@! TD*
G04 #@! TO.P,R2,1*
G04 #@! TO.N,/7*
X101420000Y-75500000D03*
G04 #@! TO.P,R2,2*
G04 #@! TO.N,GND*
X111580000Y-75500000D03*
G04 #@! TD*
G04 #@! TO.P,R6,1*
G04 #@! TO.N,/\u002A5*
X136300000Y-53900000D03*
G04 #@! TO.P,R6,2*
G04 #@! TO.N,Net-(LED3-A)*
X136300000Y-64060000D03*
G04 #@! TD*
G04 #@! TO.P,R14,1*
G04 #@! TO.N,/A3*
X162500000Y-93250000D03*
G04 #@! TO.P,R14,2*
G04 #@! TO.N,Net-(Q1-B)*
X152340000Y-93250000D03*
G04 #@! TD*
G04 #@! TO.P,R12,1*
G04 #@! TO.N,Net-(U1-f)*
X149780000Y-72700000D03*
G04 #@! TO.P,R12,2*
G04 #@! TO.N,Net-(7SEG1-F)*
X139620000Y-72700000D03*
G04 #@! TD*
D27*
G04 #@! TO.P,LED4,1,RA*
G04 #@! TO.N,Net-(LED1-A)*
X122990000Y-61500000D03*
D28*
G04 #@! TO.P,LED4,2,K*
G04 #@! TO.N,Net-(LED4-K)*
X124260000Y-61500000D03*
G04 #@! TO.P,LED4,3,BA*
G04 #@! TO.N,Net-(LED3-A)*
X125530000Y-61500000D03*
G04 #@! TO.P,LED4,4,GA*
G04 #@! TO.N,Net-(LED2-A)*
X126800000Y-61500000D03*
G04 #@! TD*
D20*
G04 #@! TO.P,R4,1*
G04 #@! TO.N,/\u002A9*
X130100000Y-53900000D03*
G04 #@! TO.P,R4,2*
G04 #@! TO.N,Net-(LED1-A)*
X130100000Y-64060000D03*
G04 #@! TD*
D14*
G04 #@! TO.P,LED3,1,K*
G04 #@! TO.N,Net-(LED1-K)*
X131168697Y-69660000D03*
D15*
G04 #@! TO.P,LED3,2,A*
G04 #@! TO.N,Net-(LED3-A)*
X131168697Y-67120000D03*
G04 #@! TD*
D11*
G04 #@! TO.P,SW2,1,1*
G04 #@! TO.N,+5V*
X103150000Y-79200000D03*
G04 #@! TO.P,SW2,2,2*
G04 #@! TO.N,unconnected-(SW2-Pad2)*
X109650000Y-79200000D03*
G04 #@! TO.P,SW2,3,K*
G04 #@! TO.N,unconnected-(SW2-K-Pad3)*
X103150000Y-83700000D03*
G04 #@! TO.P,SW2,4,A*
G04 #@! TO.N,/7*
X109650000Y-83700000D03*
G04 #@! TD*
G04 #@! TO.P,SW1,1,1*
G04 #@! TO.N,+5V*
X103300000Y-65700000D03*
G04 #@! TO.P,SW1,2,2*
G04 #@! TO.N,unconnected-(SW1-Pad2)*
X109800000Y-65700000D03*
G04 #@! TO.P,SW1,3,K*
G04 #@! TO.N,unconnected-(SW1-K-Pad3)*
X103300000Y-70200000D03*
G04 #@! TO.P,SW1,4,A*
G04 #@! TO.N,/8*
X109800000Y-70200000D03*
G04 #@! TD*
D29*
G04 #@! TO.P,Pot2,1,1*
G04 #@! TO.N,+5V*
X114300000Y-80500000D03*
G04 #@! TO.P,Pot2,2,2*
G04 #@! TO.N,/A1*
X124300000Y-78000000D03*
G04 #@! TO.P,Pot2,3,3*
G04 #@! TO.N,GND*
X114300000Y-75500000D03*
G04 #@! TD*
D20*
G04 #@! TO.P,R9,1*
G04 #@! TO.N,Net-(U1-c)*
X149780000Y-60300000D03*
G04 #@! TO.P,R9,2*
G04 #@! TO.N,Net-(7SEG1-C)*
X139620000Y-60300000D03*
G04 #@! TD*
G04 #@! TO.P,R5,1*
G04 #@! TO.N,/\u002A6*
X133200000Y-53900000D03*
G04 #@! TO.P,R5,2*
G04 #@! TO.N,Net-(LED2-A)*
X133200000Y-64060000D03*
G04 #@! TD*
D30*
G04 #@! TO.P,SPI_2,1,Pin_1*
G04 #@! TO.N,/13_SCK*
X109200000Y-54600000D03*
D31*
G04 #@! TO.P,SPI_2,2,Pin_2*
G04 #@! TO.N,/12_CIPO*
X107200000Y-54600000D03*
G04 #@! TO.P,SPI_2,3,Pin_3*
G04 #@! TO.N,/\u002A11_COPI*
X105200000Y-54600000D03*
G04 #@! TO.P,SPI_2,4,Pin_4*
G04 #@! TO.N,/\u002A10_CS*
X103200000Y-54600000D03*
G04 #@! TD*
D20*
G04 #@! TO.P,R13,1*
G04 #@! TO.N,Net-(U1-g)*
X149780000Y-69600000D03*
G04 #@! TO.P,R13,2*
G04 #@! TO.N,Net-(7SEG1-G)*
X139620000Y-69600000D03*
G04 #@! TD*
D30*
G04 #@! TO.P,SPI_1,1,Pin_1*
G04 #@! TO.N,/13_SCK*
X109200000Y-49800000D03*
D31*
G04 #@! TO.P,SPI_1,2,Pin_2*
G04 #@! TO.N,/12_CIPO*
X107200000Y-49800000D03*
G04 #@! TO.P,SPI_1,3,Pin_3*
G04 #@! TO.N,/\u002A11_COPI*
X105200000Y-49800000D03*
G04 #@! TO.P,SPI_1,4,Pin_4*
G04 #@! TO.N,/\u002A10_CS*
X103200000Y-49800000D03*
G04 #@! TD*
D20*
G04 #@! TO.P,R1,1*
G04 #@! TO.N,/8*
X101420000Y-62200000D03*
G04 #@! TO.P,R1,2*
G04 #@! TO.N,GND*
X111580000Y-62200000D03*
G04 #@! TD*
D29*
G04 #@! TO.P,Pot1,1,1*
G04 #@! TO.N,+5V*
X114300000Y-91500000D03*
G04 #@! TO.P,Pot1,2,2*
G04 #@! TO.N,/A0*
X124300000Y-89000000D03*
G04 #@! TO.P,Pot1,3,3*
G04 #@! TO.N,GND*
X114300000Y-86500000D03*
G04 #@! TD*
D30*
G04 #@! TO.P,I2C_1,1,Pin_1*
G04 #@! TO.N,+5V*
X165400000Y-75200000D03*
D31*
G04 #@! TO.P,I2C_1,2,Pin_2*
G04 #@! TO.N,/SCL{slash}A5*
X165400000Y-73200000D03*
G04 #@! TO.P,I2C_1,3,Pin_3*
G04 #@! TO.N,/SDA{slash}A4*
X165400000Y-71200000D03*
G04 #@! TO.P,I2C_1,4,Pin_4*
G04 #@! TO.N,GND*
X165400000Y-69200000D03*
G04 #@! TD*
D32*
G04 #@! TO.N,/A0*
X131500000Y-96200000D02*
X149540000Y-96200000D01*
X124300000Y-89000000D02*
X131500000Y-96200000D01*
X149540000Y-96200000D02*
X150800000Y-97460000D01*
G04 #@! TO.N,/A1*
X133600000Y-95749000D02*
X151629000Y-95749000D01*
X124300000Y-78000000D02*
X124300000Y-86449000D01*
X124300000Y-86449000D02*
X133600000Y-95749000D01*
X151629000Y-95749000D02*
X153340000Y-97460000D01*
G04 #@! TO.N,/A2*
X121020000Y-97407000D02*
X123213000Y-99600000D01*
X153740000Y-99600000D02*
X155880000Y-97460000D01*
X121020000Y-96750000D02*
X121020000Y-97407000D01*
X123213000Y-99600000D02*
X153740000Y-99600000D01*
G04 #@! TO.N,/A3*
X158420000Y-97330000D02*
X158420000Y-97460000D01*
X162500000Y-93250000D02*
X158420000Y-97330000D01*
G04 #@! TO.N,/SDA{slash}A4*
X164314000Y-90686000D02*
X165800000Y-89200000D01*
X165800000Y-89200000D02*
X165800000Y-79600000D01*
X163200000Y-77000000D02*
X163200000Y-73400000D01*
X160960000Y-97460000D02*
X164314000Y-94106000D01*
X163200000Y-73400000D02*
X165400000Y-71200000D01*
X164314000Y-94106000D02*
X164314000Y-90686000D01*
X165800000Y-79600000D02*
X163200000Y-77000000D01*
G04 #@! TO.N,/SCL{slash}A5*
X163500000Y-97460000D02*
X167766000Y-93194000D01*
X167766000Y-75566000D02*
X165400000Y-73200000D01*
X167766000Y-93194000D02*
X167766000Y-75566000D01*
G04 #@! TO.N,Net-(7SEG1-G)*
X128780000Y-74200000D02*
X132200000Y-74200000D01*
X132200000Y-74200000D02*
X134600000Y-71800000D01*
X137420000Y-71800000D02*
X139620000Y-69600000D01*
X134600000Y-71800000D02*
X137420000Y-71800000D01*
G04 #@! TO.N,Net-(7SEG1-E)*
X137800000Y-68900000D02*
X137800000Y-55920000D01*
X126300000Y-72900000D02*
X128000000Y-71200000D01*
X134400000Y-69800000D02*
X136900000Y-69800000D01*
X136900000Y-69800000D02*
X137800000Y-68900000D01*
X128780000Y-81820000D02*
X127577919Y-81820000D01*
X133000000Y-71200000D02*
X134400000Y-69800000D01*
X127577919Y-81820000D02*
X126300000Y-80542081D01*
X126300000Y-80542081D02*
X126300000Y-72900000D01*
X128000000Y-71200000D02*
X133000000Y-71200000D01*
X137800000Y-55920000D02*
X139620000Y-54100000D01*
G04 #@! TO.N,/8*
X131226000Y-53474000D02*
X131226000Y-54366405D01*
X137400000Y-51600000D02*
X133100000Y-51600000D01*
X131226000Y-54366405D02*
X128892405Y-56700000D01*
X101800000Y-62200000D02*
X101420000Y-62200000D01*
X141656000Y-49200000D02*
X140256000Y-50600000D01*
X140256000Y-50600000D02*
X138400000Y-50600000D01*
X101420000Y-62200000D02*
X106000000Y-62200000D01*
X109800000Y-70200000D02*
X101800000Y-62200000D01*
X106000000Y-62200000D02*
X109100000Y-59100000D01*
X138400000Y-50600000D02*
X137400000Y-51600000D01*
X133100000Y-51600000D02*
X131226000Y-53474000D01*
X128892405Y-56700000D02*
X111500000Y-56700000D01*
X111500000Y-56700000D02*
X109100000Y-59100000D01*
G04 #@! TO.N,/7*
X113500000Y-68200000D02*
X113500000Y-59000000D01*
X115349000Y-57151000D02*
X129079215Y-57151000D01*
X138011190Y-52051000D02*
X139011190Y-51051000D01*
X106200000Y-75500000D02*
X113500000Y-68200000D01*
X109620000Y-83700000D02*
X109650000Y-83700000D01*
X101420000Y-75500000D02*
X109620000Y-83700000D01*
X129079215Y-57151000D02*
X132074000Y-54156215D01*
X132074000Y-54156215D02*
X132074000Y-53433595D01*
X113500000Y-59000000D02*
X115349000Y-57151000D01*
X143869000Y-51051000D02*
X145720000Y-49200000D01*
X101420000Y-75500000D02*
X106200000Y-75500000D01*
X132074000Y-53433595D02*
X133456595Y-52051000D01*
X133456595Y-52051000D02*
X138011190Y-52051000D01*
X139011190Y-51051000D02*
X143869000Y-51051000D01*
G04 #@! TO.N,Net-(7SEG1-A)*
X140300000Y-74200000D02*
X141800000Y-72700000D01*
X141800000Y-72700000D02*
X141800000Y-68680000D01*
X141800000Y-68680000D02*
X139620000Y-66500000D01*
X136400000Y-74200000D02*
X140300000Y-74200000D01*
G04 #@! TO.N,/\u002A9*
X130100000Y-53900000D02*
X132900000Y-51100000D01*
X132900000Y-51100000D02*
X137216000Y-51100000D01*
X137216000Y-51100000D02*
X139116000Y-49200000D01*
G04 #@! TO.N,/4*
X139327595Y-52800000D02*
X152500000Y-52800000D01*
X132000000Y-55100000D02*
X137027595Y-55100000D01*
X115598000Y-57602000D02*
X129498000Y-57602000D01*
X152500000Y-52800000D02*
X153340000Y-51960000D01*
X129498000Y-57602000D02*
X132000000Y-55100000D01*
X109700000Y-73400000D02*
X114100000Y-69000000D01*
X106413116Y-88600000D02*
X110826000Y-84187116D01*
X153340000Y-51960000D02*
X153340000Y-49200000D01*
X102300000Y-88600000D02*
X101420000Y-88600000D01*
X110826000Y-77926000D02*
X109700000Y-76800000D01*
X109600000Y-95900000D02*
X102300000Y-88600000D01*
X114100000Y-59100000D02*
X115598000Y-57602000D01*
X101420000Y-88600000D02*
X106413116Y-88600000D01*
X110826000Y-84187116D02*
X110826000Y-77926000D01*
X114100000Y-69000000D02*
X114100000Y-59100000D01*
X137027595Y-55100000D02*
X139327595Y-52800000D01*
X109700000Y-76800000D02*
X109700000Y-73400000D01*
G04 #@! TO.N,/2*
X158420000Y-49200000D02*
X157200000Y-50420000D01*
X157200000Y-65740000D02*
X160800000Y-69340000D01*
X157200000Y-50420000D02*
X157200000Y-65740000D01*
G04 #@! TO.N,/\u002A6*
X138900000Y-51800000D02*
X146600000Y-51800000D01*
X137900000Y-52800000D02*
X138900000Y-51800000D01*
X137874000Y-52774000D02*
X137900000Y-52800000D01*
X133200000Y-53900000D02*
X134326000Y-52774000D01*
X146600000Y-50860000D02*
X148260000Y-49200000D01*
X146600000Y-51800000D02*
X146600000Y-50860000D01*
X134326000Y-52774000D02*
X137874000Y-52774000D01*
G04 #@! TO.N,/\u002A5*
X137589785Y-53900000D02*
X139189785Y-52300000D01*
X139189785Y-52300000D02*
X148700000Y-52300000D01*
X148700000Y-52300000D02*
X150800000Y-50200000D01*
X150800000Y-50200000D02*
X150800000Y-49200000D01*
X136300000Y-53900000D02*
X137589785Y-53900000D01*
G04 #@! TO.N,/TX{slash}1*
X159800000Y-58000000D02*
X159000000Y-57200000D01*
X162400000Y-70280000D02*
X162400000Y-58800000D01*
X159000000Y-51160000D02*
X160960000Y-49200000D01*
X160800000Y-71880000D02*
X162400000Y-70280000D01*
X159000000Y-57200000D02*
X159000000Y-51160000D01*
X161600000Y-58000000D02*
X159800000Y-58000000D01*
X162400000Y-58800000D02*
X161600000Y-58000000D01*
G04 #@! TO.N,/\u002A3*
X158200000Y-57800000D02*
X158200000Y-51083116D01*
X157480000Y-47600000D02*
X155880000Y-49200000D01*
X159600000Y-48400000D02*
X158800000Y-47600000D01*
X158200000Y-51083116D02*
X159600000Y-49683116D01*
X160800000Y-59180000D02*
X159580000Y-59180000D01*
X159580000Y-59180000D02*
X158200000Y-57800000D01*
X158800000Y-47600000D02*
X157480000Y-47600000D01*
X159600000Y-49683116D02*
X159600000Y-48400000D01*
G04 #@! TO.N,/RX{slash}0*
X160800000Y-56640000D02*
X163500000Y-53940000D01*
X163500000Y-53940000D02*
X163500000Y-49200000D01*
G04 #@! TO.N,Net-(7SEG1-C)*
X136400000Y-81820000D02*
X138680000Y-81820000D01*
X139400000Y-81100000D02*
X139400000Y-78100000D01*
X144600000Y-73000000D02*
X144600000Y-65280000D01*
X139400000Y-78100000D02*
X144500000Y-73000000D01*
X144500000Y-73000000D02*
X144600000Y-73000000D01*
X144600000Y-65280000D02*
X139620000Y-60300000D01*
X138680000Y-81820000D02*
X139400000Y-81100000D01*
G04 #@! TO.N,Net-(7SEG1-B)*
X136400000Y-76740000D02*
X138960000Y-76740000D01*
X138960000Y-76740000D02*
X142800000Y-72900000D01*
X142800000Y-72900000D02*
X142800000Y-66580000D01*
X142800000Y-66580000D02*
X139620000Y-63400000D01*
G04 #@! TO.N,Net-(7SEG1-D)*
X130000000Y-80600000D02*
X127800000Y-80600000D01*
X128000000Y-72300000D02*
X133000000Y-72300000D01*
X130900000Y-81500000D02*
X130000000Y-80600000D01*
X128780000Y-84360000D02*
X130900000Y-82240000D01*
X130900000Y-82240000D02*
X130900000Y-81500000D01*
X138400000Y-69700000D02*
X138400000Y-58420000D01*
X133000000Y-72300000D02*
X134300000Y-71000000D01*
X137100000Y-71000000D02*
X138400000Y-69700000D01*
X127800000Y-80600000D02*
X126900000Y-79700000D01*
X126900000Y-73400000D02*
X128000000Y-72300000D01*
X138400000Y-58420000D02*
X139620000Y-57200000D01*
X126900000Y-79700000D02*
X126900000Y-73400000D01*
X134300000Y-71000000D02*
X137100000Y-71000000D01*
G04 #@! TO.N,Net-(7SEG1-F)*
X135100000Y-72700000D02*
X131060000Y-76740000D01*
X131060000Y-76740000D02*
X128780000Y-76740000D01*
X139620000Y-72700000D02*
X135100000Y-72700000D01*
G04 #@! TO.N,Net-(Dio1-A)*
X151025000Y-86250000D02*
X153950000Y-86250000D01*
X148500000Y-90670000D02*
X149760000Y-91930000D01*
X148500000Y-88775000D02*
X151025000Y-86250000D01*
X147500000Y-77900000D02*
X147500000Y-79300000D01*
X154100000Y-85900000D02*
X154100000Y-86400000D01*
X149760000Y-91930000D02*
X149760000Y-93250000D01*
X147100000Y-77500000D02*
X147500000Y-77900000D01*
X147500000Y-79300000D02*
X154100000Y-85900000D01*
X148500000Y-88775000D02*
X148500000Y-90670000D01*
X153950000Y-86250000D02*
X154100000Y-86400000D01*
G04 #@! TO.N,/\u002A11_COPI*
X105200000Y-49800000D02*
X107600000Y-52200000D01*
X105200000Y-54600000D02*
X105200000Y-49800000D01*
X131036000Y-52200000D02*
X134036000Y-49200000D01*
X107600000Y-52200000D02*
X131036000Y-52200000D01*
G04 #@! TO.N,/12_CIPO*
X107200000Y-49800000D02*
X108777000Y-51377000D01*
X129319000Y-51377000D02*
X131496000Y-49200000D01*
X108777000Y-51377000D02*
X129319000Y-51377000D01*
G04 #@! TO.N,/13_SCK*
X109200000Y-49800000D02*
X110326000Y-50926000D01*
X110326000Y-50926000D02*
X127230000Y-50926000D01*
X127230000Y-50926000D02*
X128956000Y-49200000D01*
G04 #@! TO.N,/\u002A10_CS*
X103200000Y-49800000D02*
X105526000Y-47474000D01*
X105526000Y-47474000D02*
X134850000Y-47474000D01*
X134850000Y-47474000D02*
X136576000Y-49200000D01*
X103200000Y-54600000D02*
X103200000Y-49800000D01*
G04 #@! TO.N,Net-(Q1-B)*
X152340000Y-89180000D02*
X152340000Y-93250000D01*
X154191504Y-87670000D02*
X154341504Y-87520000D01*
X154100000Y-87670000D02*
X154191504Y-87670000D01*
X153950000Y-87570000D02*
X152340000Y-89180000D01*
X154000000Y-87570000D02*
X153950000Y-87570000D01*
X154100000Y-87670000D02*
X154000000Y-87570000D01*
G04 #@! TO.N,Net-(LED5-A)*
X143300000Y-89680000D02*
X144820000Y-89680000D01*
X145600000Y-88900000D02*
X145600000Y-87400000D01*
X145600000Y-87400000D02*
X146765000Y-86235000D01*
X146765000Y-86235000D02*
X148500000Y-86235000D01*
X144820000Y-89680000D02*
X145600000Y-88900000D01*
G04 #@! TO.N,Net-(U1-a)*
X151980000Y-64300000D02*
X153140000Y-64300000D01*
X153140000Y-64300000D02*
X153180000Y-64260000D01*
X149780000Y-66500000D02*
X151980000Y-64300000D01*
G04 #@! TO.N,Net-(U1-b)*
X153160000Y-61700000D02*
X153180000Y-61720000D01*
X149780000Y-63400000D02*
X151480000Y-61700000D01*
X151480000Y-61700000D02*
X153160000Y-61700000D01*
G04 #@! TO.N,Net-(U1-c)*
X152020000Y-59180000D02*
X153180000Y-59180000D01*
X152000000Y-59200000D02*
X152020000Y-59180000D01*
X149780000Y-60300000D02*
X150880000Y-59200000D01*
X150880000Y-59200000D02*
X152000000Y-59200000D01*
G04 #@! TO.N,Net-(U1-d)*
X153180000Y-56640000D02*
X150340000Y-56640000D01*
X150340000Y-56640000D02*
X149780000Y-57200000D01*
G04 #@! TO.N,Net-(U1-e)*
X153180000Y-54100000D02*
X149780000Y-54100000D01*
G04 #@! TO.N,Net-(U1-f)*
X153140000Y-69340000D02*
X153180000Y-69340000D01*
X149780000Y-72700000D02*
X153140000Y-69340000D01*
G04 #@! TO.N,Net-(U1-g)*
X151200000Y-67200000D02*
X151600000Y-66800000D01*
X151600000Y-66800000D02*
X153180000Y-66800000D01*
X149780000Y-69600000D02*
X151200000Y-68180000D01*
X151200000Y-68180000D02*
X151200000Y-67200000D01*
G04 #@! TO.N,Net-(LED1-A)*
X118168697Y-67120000D02*
X122990000Y-62298697D01*
X122990000Y-61500000D02*
X122990000Y-61865000D01*
X122990000Y-62298697D02*
X122990000Y-61500000D01*
X122990000Y-61865000D02*
X125185000Y-64060000D01*
X125185000Y-64060000D02*
X130100000Y-64060000D01*
G04 #@! TO.N,Net-(LED2-A)*
X124668697Y-67135000D02*
X126400000Y-65403697D01*
X126400000Y-65403697D02*
X126400000Y-65400000D01*
X126800000Y-61500000D02*
X130640000Y-61500000D01*
X126400000Y-65400000D02*
X131860000Y-65400000D01*
X131860000Y-65400000D02*
X133200000Y-64060000D01*
X130640000Y-61500000D02*
X133200000Y-64060000D01*
G04 #@! TO.N,Net-(LED3-A)*
X131168697Y-67120000D02*
X133240000Y-67120000D01*
X133240000Y-67120000D02*
X136300000Y-64060000D01*
G04 #@! TD*
M02*
