M48
; DRILL file {KiCad 9.0.4} date 2025-10-13T09:43:51+0200
; FORMAT={-:-/ absolute / metric / decimal}
; #@! TF.CreationDate,2025-10-13T09:43:51+02:00
; #@! TF.GenerationSoftware,Kicad,Pcbnew,9.0.4
; #@! TF.FileFunction,Plated,1,2,PTH
FMAT,2
METRIC
; #@! TA.AperFunction,Plated,PTH,ComponentDrill
T1C0.720
; #@! TA.AperFunction,Plated,PTH,ComponentDrill
T2C0.750
; #@! TA.AperFunction,Plated,PTH,ComponentDrill
T3C0.800
; #@! TA.AperFunction,Plated,PTH,ComponentDrill
T4C0.900
; #@! TA.AperFunction,Plated,PTH,ComponentDrill
T5C1.000
; #@! TA.AperFunction,Plated,PTH,ComponentDrill
T6C1.100
; #@! TA.AperFunction,Plated,PTH,ComponentDrill
T7C1.300
%
G90
G05
T2
X119.75Y-96.75
X121.02Y-96.75
X122.29Y-96.75
X147.1Y-77.5
X152.6Y-77.5
X152.6Y-82.5
X154.1Y-86.4
X154.1Y-87.67
X154.1Y-88.94
T3
X101.42Y-62.2
X101.42Y-75.5
X101.42Y-88.6
X103.2Y-49.8
X103.2Y-54.6
X104.1Y-59.1
X105.2Y-49.8
X105.2Y-54.6
X107.2Y-49.8
X107.2Y-54.6
X109.1Y-59.1
X109.2Y-49.8
X109.2Y-54.6
X111.58Y-62.2
X111.58Y-75.5
X111.58Y-88.6
X116.379Y-55.512
X116.379Y-63.132
X118.919Y-55.512
X118.919Y-63.132
X130.1Y-53.9
X130.1Y-64.06
X133.2Y-53.9
X133.2Y-64.06
X136.3Y-53.9
X136.3Y-64.06
X139.62Y-54.1
X139.62Y-57.2
X139.62Y-60.3
X139.62Y-63.4
X139.62Y-66.5
X139.62Y-69.6
X139.62Y-72.7
X143.3Y-79.52
X143.3Y-89.68
X149.78Y-54.1
X149.78Y-57.2
X149.78Y-60.3
X149.78Y-63.4
X149.78Y-66.5
X149.78Y-69.6
X149.78Y-72.7
X152.34Y-93.25
X153.18Y-54.1
X153.18Y-56.64
X153.18Y-59.18
X153.18Y-61.72
X153.18Y-64.26
X153.18Y-66.8
X153.18Y-69.34
X153.18Y-71.88
X160.8Y-54.1
X160.8Y-56.64
X160.8Y-59.18
X160.8Y-61.72
X160.8Y-64.26
X160.8Y-66.8
X160.8Y-69.34
X160.8Y-71.88
X162.5Y-93.25
X165.4Y-69.2
X165.4Y-71.2
X165.4Y-73.2
X165.4Y-75.2
T4
X118.169Y-67.12
X118.169Y-69.66
X122.99Y-61.5
X124.26Y-61.5
X124.669Y-67.135
X124.669Y-69.675
X125.53Y-61.5
X126.8Y-61.5
X131.169Y-67.12
X131.169Y-69.66
X148.5Y-86.235
X148.5Y-88.775
T5
X103.1Y-91.4
X103.1Y-95.9
X103.15Y-79.2
X103.15Y-83.7
X103.3Y-65.7
X103.3Y-70.2
X109.6Y-91.4
X109.6Y-95.9
X109.65Y-79.2
X109.65Y-83.7
X109.8Y-65.7
X109.8Y-70.2
X118.796Y-49.2
X121.336Y-49.2
X123.876Y-49.2
X126.416Y-49.2
X127.94Y-97.46
X128.78Y-74.2
X128.78Y-76.74
X128.78Y-79.28
X128.78Y-81.82
X128.78Y-84.36
X128.956Y-49.2
X130.48Y-97.46
X131.496Y-49.2
X133.02Y-97.46
X134.036Y-49.2
X135.56Y-97.46
X136.4Y-74.2
X136.4Y-76.74
X136.4Y-79.28
X136.4Y-81.82
X136.4Y-84.36
X136.576Y-49.2
X138.1Y-97.46
X139.116Y-49.2
X140.64Y-97.46
X141.656Y-49.2
X143.18Y-97.46
X145.72Y-49.2
X145.72Y-97.46
X148.26Y-49.2
X150.8Y-49.2
X150.8Y-97.46
X153.34Y-49.2
X153.34Y-97.46
X155.88Y-49.2
X155.88Y-97.46
X158.42Y-49.2
X158.42Y-97.46
X160.96Y-49.2
X160.96Y-97.46
X163.5Y-49.2
X163.5Y-97.46
T6
X139.6Y-93.25
X149.76Y-93.25
T7
X114.3Y-75.5
X114.3Y-80.5
X114.3Y-86.5
X114.3Y-91.5
X124.3Y-78.0
X124.3Y-89.0
X162.9Y-81.0
X162.9Y-86.08
T1
G00X147.08Y-82.5
M15
G01X147.12Y-82.5
M16
G05
M30
